# xmcd
#
# Track frame offsets:
#	150
#	24128
#	45357
#	64322
#	76259
#	93971
#	109324
#	126142
#	142635
#	156793
#	174131
#	198659
#	210486
#
# Disc length: 2988 seconds
#
# Revision: 2
# Processed by: cddbd v1.5.2PL0 Copyright (c) Steve Scherf et al.
# Submitted via: audiograbber 1.83.01
#
DISCID=9b0baa0d
DTITLE=Rob Tognoni - Retro Shakin'
DYEAR=2002
DGENRE=Blues-Rock
TTITLE0=Comin' Home Tonight
TTITLE1=Shakin' the Devils Hand
TTITLE2=Mr. John Lee (the Boogie Man)
TTITLE3=Pool Shark
TTITLE4=For all time
TTITLE5=4 Seasons
TTITLE6=Take a bone from a dawg
TTITLE7=Need a break
TTITLE8=Retro Shakin'
TTITLE9=Vietnam Soldier
TTITLE10=24 Hour Blues
TTITLE11=Guitar Boogie Re-Fried
TTITLE12=Black Chair (Live)
EXTD=
EXTT0=
EXTT1=
EXTT2=
EXTT3=
EXTT4=
EXTT5=
EXTT6=
EXTT7=
EXTT8=
EXTT9=
EXTT10=
EXTT11=
EXTT12=
PLAYORDER=
